<svg xmlns="http://www.w3.org/2000/svg" viewBox="0 0 50 50"><path d="M10 4C6.691 4 4 6.691 4 10C4 13.309 6.691 16 10 16C13.309 16 16 13.309 16 10C16 6.691 13.309 4 10 4 z M 25 4C21.691 4 19 6.691 19 10C19 13.309 21.691 16 25 16C28.309 16 31 13.309 31 10C31 6.691 28.309 4 25 4 z M 40 4C36.691 4 34 6.691 34 10C34 13.309 36.691 16 40 16C43.309 16 46 13.309 46 10C46 6.691 43.309 4 40 4 z M 10 19C6.691 19 4 21.691 4 25C4 28.309 6.691 31 10 31C13.309 31 16 28.309 16 25C16 21.691 13.309 19 10 19 z M 25 19C21.691 19 19 21.691 19 25C19 28.309 21.691 31 25 31C28.309 31 31 28.309 31 25C31 21.691 28.309 19 25 19 z M 40 19C36.691 19 34 21.691 34 25C34 28.309 36.691 31 40 31C43.309 31 46 28.309 46 25C46 21.691 43.309 19 40 19 z M 10 34C6.691 34 4 36.691 4 40C4 43.309 6.691 46 10 46C13.309 46 16 43.309 16 40C16 36.691 13.309 34 10 34 z M 25 34C21.691 34 19 36.691 19 40C19 43.309 21.691 46 25 46C28.309 46 31 43.309 31 40C31 36.691 28.309 34 25 34 z M 40 34C36.691 34 34 36.691 34 40C34 43.309 36.691 46 40 46C43.309 46 46 43.309 46 40C46 36.691 43.309 34 40 34 z"/></svg>