<svg xmlns="http://www.w3.org/2000/svg" viewBox="0 0 50 50"><path d="M12 0C10.90625 0 10 0.90625 10 2L10 4L4 4C2.839844 4 2 4.839844 2 6L2 13L48 13L48 6C48 4.839844 47.160156 4 46 4L40 4L40 2C40 0.90625 39.09375 0 38 0L36 0C34.90625 0 34 0.90625 34 2L34 4L16 4L16 2C16 0.90625 15.09375 0 14 0 Z M 12 2L14 2L14 8L12 8 Z M 36 2L38 2L38 8L36 8 Z M 2 15L2 46C2 47.105469 2.894531 48 4 48L46 48C47.105469 48 48 47.105469 48 46L48 15 Z M 20.320313 22.671875C20.8125 22.671875 21.296875 22.746094 21.769531 22.890625C22.246094 23.035156 22.667969 23.242188 23.046875 23.519531C23.425781 23.796875 23.726563 24.144531 23.953125 24.574219C24.183594 25 24.296875 25.488281 24.296875 26.039063C24.296875 26.675781 24.152344 27.230469 23.863281 27.703125C23.578125 28.179688 23.128906 28.523438 22.515625 28.738281L22.515625 28.777344C23.234375 28.917969 23.796875 29.277344 24.199219 29.847656C24.601563 30.417969 24.800781 31.109375 24.800781 31.925781C24.804688 32.527344 24.683594 33.0625 24.441406 33.535156C24.203125 34.011719 23.878906 34.414063 23.46875 34.742188C23.0625 35.074219 22.589844 35.328125 22.046875 35.507813C21.507813 35.6875 20.941406 35.777344 20.339844 35.777344C19.609375 35.777344 18.96875 35.671875 18.421875 35.464844C17.875 35.253906 17.421875 34.957031 17.054688 34.574219C16.6875 34.1875 16.40625 33.726563 16.21875 33.1875C16.023438 32.644531 15.921875 32.046875 15.910156 31.386719L17.964844 31.386719C17.9375 32.15625 18.128906 32.792969 18.53125 33.300781C18.929688 33.8125 19.535156 34.066406 20.339844 34.066406C21.023438 34.066406 21.597656 33.871094 22.058594 33.484375C22.519531 33.09375 22.75 32.539063 22.75 31.816406C22.75 31.328125 22.652344 30.9375 22.464844 30.648438C22.269531 30.359375 22.019531 30.140625 21.707031 29.988281C21.394531 29.839844 21.042969 29.75 20.652344 29.714844C20.261719 29.675781 19.863281 29.664063 19.457031 29.675781L19.457031 28.144531C19.792969 28.160156 20.128906 28.132813 20.464844 28.074219C20.800781 28.015625 21.101563 27.910156 21.363281 27.761719C21.628906 27.609375 21.84375 27.402344 22.003906 27.140625C22.164063 26.875 22.246094 26.550781 22.246094 26.167969C22.246094 25.625 22.0625 25.191406 21.699219 24.871094C21.332031 24.546875 20.859375 24.386719 20.285156 24.386719C19.925781 24.386719 19.613281 24.457031 19.347656 24.597656C19.082031 24.742188 18.867188 24.941406 18.691406 25.1875C18.515625 25.429688 18.390625 25.707031 18.304688 26.015625C18.21875 26.320313 18.183594 26.632813 18.199219 26.957031L16.144531 26.957031C16.167969 26.34375 16.28125 25.78125 16.484375 25.257813C16.691406 24.734375 16.96875 24.28125 17.324219 23.898438C17.679688 23.515625 18.105469 23.214844 18.609375 23C19.113281 22.78125 19.683594 22.671875 20.320313 22.671875 Z M 29.984375 22.925781L31.660156 22.925781L31.660156 35.527344L29.410156 35.527344L29.410156 26.636719L26.3125 26.636719L26.3125 25.015625C26.746094 25.015625 27.167969 24.976563 27.574219 24.90625C27.980469 24.835938 28.351563 24.714844 28.683594 24.546875C29.011719 24.378906 29.292969 24.164063 29.527344 23.898438C29.761719 23.632813 29.914063 23.308594 29.984375 22.925781Z"/></svg>