<svg xmlns="http://www.w3.org/2000/svg" viewBox="0 0 50 50"><path d="M47 6C45.347656 6 44 7.347656 44 9L44 41C44 42.652344 45.347656 44 47 44C48.652344 44 50 42.652344 50 41L50 9C50 7.347656 48.652344 6 47 6 Z M 42 8.84375L8 19.0625L8 29.125L13.65625 31.09375L12.875 33.15625C12.875 33.167969 12.875 33.175781 12.875 33.1875C12.101563 35.507813 13.371094 38.039063 15.6875 38.8125L19.84375 40.21875C22.164063 40.992188 24.695313 39.726563 25.46875 37.40625L26.125 35.46875L42 41 Z M 3 18C1.347656 18 0 19.347656 0 21L0 27C0 28.652344 1.347656 30 3 30C4.652344 30 6 28.652344 6 27L6 21C6 19.347656 4.652344 18 3 18 Z M 15.53125 31.75L24.21875 34.78125L23.5625 36.75C23.132813 38.046875 21.765625 38.746094 20.46875 38.3125L16.3125 36.9375C15.03125 36.507813 14.371094 35.132813 14.78125 33.84375C14.785156 33.832031 14.777344 33.824219 14.78125 33.8125Z"/></svg>