<svg id="Capa_1" enable-background="new 0 0 512 512" height="512" viewBox="0 0 512 512" width="512" xmlns="http://www.w3.org/2000/svg" xmlns:xlink="http://www.w3.org/1999/xlink"><linearGradient id="SVGID_1_" gradientUnits="userSpaceOnUse" x1="256" x2="256" y1="466" y2="76"><stop offset="0" stop-color="#fd3a84"/><stop offset="1" stop-color="#ffa68d"/></linearGradient><linearGradient id="SVGID_2_" gradientUnits="userSpaceOnUse" x1="271.5" x2="271.5" y1="406.004" y2="46"><stop offset="0" stop-color="#ffc2cc"/><stop offset="1" stop-color="#fff2f4"/></linearGradient><g id="Bank_Check_1_"><g><g><path d="m361 166 15-22.5 15 22.5h45c24.9 0 45-20.102 45-45 0-24.9-20.1-45-45-45h-45l-15 22.5-15-22.5h-165l-30 45 30 45zm121 90-30-30c0-16.5-43.5-30-60-30h-377c-8.284 0-15 6.716-15 15v240c0 8.284 6.716 15 15 15h482c8.284 0 15-6.716 15-15v-135c0-16.5-13.5-60-30-60z" fill="url(#SVGID_1_)"/></g></g><g><g><path d="m392 196c16.5 0 30 13.5 30 30v45c0 8.284 6.716 15 15 15h45c16.5 0 30 13.5 30 30 0-66.301-53.699-120-120-120zm-316 60c-8.291 0-15 6.709-15 15s6.709 15 15 15h60c8.291 0 15-6.709 15-15s-6.709-15-15-15zm211 30h60c8.291 0 15-6.709 15-15s-6.709-15-15-15h-60c-8.291 0-15 6.709-15 15s6.709 15 15 15zm0 30h-211c-8.291 0-15 6.709-15 15s6.709 15 15 15h211c8.291 0 15-6.709 15-15s-6.709-15-15-15zm-61 60h-150c-8.291 0-15 6.709-15 15s6.709 15 15 15h150c8.291 0 15-6.709 15-15s-6.709-15-15-15zm200.395-25.605-15.308 15.293c-7.544-10.562-18.809-19.688-34.087-19.688-7.09 0-13.315 1.963-18.706 5.127-2.754-3.149-6.797-5.127-11.294-5.127-8.291 0-15 6.709-15 15v30c0 7.441 5.449 13.711 12.817 14.81 7.236 1.055 14.399-3.413 16.553-10.532 1.831-6.036 8.32-19.278 15.63-19.278s13.799 13.242 15.601 19.219c1.494 5.083 5.552 9.009 10.679 10.313 4.931 1.292 10.495-.075 14.326-3.926l30-30c5.859-5.859 5.859-15.352 0-21.211s-15.352-5.86-21.211 0zm-230.395-274.395c-84.9 0-153.3 30-156 31.199-5.4 2.4-9 7.8-9 13.801s3.6 11.4 9 13.799c2.7 1.201 71.1 31.201 156 31.201zm195-15c0-8.401-6.599-15-15-15s-15 6.599-15 15v105h30z" fill="url(#SVGID_2_)"/></g></g></g></svg>