<svg id="Capa_1" enable-background="new 0 0 512 512" height="512" viewBox="0 0 512 512" width="512" xmlns="http://www.w3.org/2000/svg" xmlns:xlink="http://www.w3.org/1999/xlink"><linearGradient id="SVGID_1_" gradientUnits="userSpaceOnUse" x1="228.787" x2="228.787" y1="442.299" y2="0"><stop offset="0" stop-color="#a93aff"/><stop offset="1" stop-color="#ff81ff"/></linearGradient><linearGradient id="SVGID_2_" gradientUnits="userSpaceOnUse" x1="316.5" x2="316.5" y1="512" y2="91"><stop offset="0" stop-color="#ffbef9"/><stop offset="1" stop-color="#fff1ff"/></linearGradient><g><g><g><path d="m448.715 324.013c-11.82-11.241-30.72-11.249-42.217.278l-45.498 45.498-23.291-23.306c-11.671-11.64-30.727-11.459-42.217 0-11.9 11.869-11.861 30.663 0 42.524l43.857 43.813c5.391 6.021 13.301 9.478 21.65 9.478s16.26-3.457 21.064-8.862l67.207-66.914c11.164-11.748 11.164-30.175-.555-42.509zm-81.973-52.471c5.83-.483 10.869-4.307 12.861-9.8 7.559-20.757 12.397-42.876 12.397-65.742 0-107.52-88.48-196-196-196s-196 88.48-196 196 88.48 196 196 196c21.943 0 44.004-4.823 65.537-12.338 5.596-1.963 9.521-7.017 9.99-12.92 4.219-50.932 44.268-90.967 95.215-95.2z" fill="url(#SVGID_1_)"/></g></g><g><g><path d="m196 91c-8.291 0-15 6.709-15 15v83.789l-55.605 55.605c-5.859 5.859-5.859 15.352 0 21.211s15.351 5.859 21.211 0l59.982-59.982c2.822-2.814 4.412-6.732 4.412-10.623v-90c0-8.291-6.709-15-15-15zm180 150c-76.381 0-135 61.6-135 135 0 74.399 60.601 136 135 136s136-61.601 136-136c0-74.401-61.601-135-136-135zm62.401 115.199-66.902 66.601c-2.699 3-6.599 4.499-10.499 4.499s-7.8-1.5-10.499-4.499l-44.401-44.401c-6-5.999-6-15.299 0-21.299 5.7-5.7 15.3-5.7 21 0l33.9 33.9 56.1-56.1c5.7-5.7 15.3-5.7 21.301 0 5.7 5.999 5.7 15.3 0 21.299z" fill="url(#SVGID_2_)"/></g></g></g></svg>