<svg id="Capa_1" enable-background="new 0 0 512 512" height="512" viewBox="0 0 512 512" width="512" xmlns="http://www.w3.org/2000/svg" xmlns:xlink="http://www.w3.org/1999/xlink"><linearGradient id="SVGID_1_" gradientUnits="userSpaceOnUse" x1="256" x2="256" y1="512" y2="0"><stop offset="0" stop-color="#a93aff"/><stop offset="1" stop-color="#ff81ff"/></linearGradient><linearGradient id="SVGID_2_" gradientUnits="userSpaceOnUse" x1="249.5" x2="249.5" y1="175.25" y2="0"><stop offset="0" stop-color="#ffbef9"/><stop offset="1" stop-color="#fff1ff"/></linearGradient><g><g><g><path d="m167 0c-91.28 0-167 74.84-167 166 0 91.53 76.16 165 167 165 87.88 0 159.93-69.06 164.74-155.75zm90 361h-60c-8.284 0-15 6.716-15 15v121c0 8.284 6.716 15 15 15h60c8.284 0 15-6.716 15-15v-121c0-8.284-6.716-15-15-15zm120-90h-60c-8.284 0-15 6.716-15 15v211c0 8.284 6.716 15 15 15h60c8.284 0 15-6.716 15-15v-211c0-8.284-6.716-15-15-15zm120-90h-60c-8.284 0-15 6.716-15 15v301c0 8.284 6.716 15 15 15h60c8.284 0 15-6.716 15-15v-301c0-8.284-6.716-15-15-15zm-360 241h-60c-8.284 0-15 6.716-15 15v60c0 8.284 6.716 15 15 15h60c8.284 0 15-6.716 15-15v-60c0-8.284-6.716-15-15-15z" fill="url(#SVGID_1_)"/></g></g><g><g><path d="m197 2.76c-9.73-1.82-19.76-2.76-30-2.76v151c0 7.93 6.17 14.48 14.08 14.97l150.66 9.28c.17-3.06.26-6.15.26-9.25 0-80.776-57.862-148.934-135-163.24z" fill="url(#SVGID_2_)"/></g></g></g></svg>