<svg id="Capa_1" enable-background="new 0 0 512 512" height="512" viewBox="0 0 512 512" width="512" xmlns="http://www.w3.org/2000/svg" xmlns:xlink="http://www.w3.org/1999/xlink"><linearGradient id="SVGID_1_" gradientUnits="userSpaceOnUse" x1="255.993" x2="255.993" y1="451" y2="61"><stop offset="0" stop-color="#fd3a84"/><stop offset="1" stop-color="#ffa68d"/></linearGradient><linearGradient id="SVGID_2_" gradientUnits="userSpaceOnUse" x1="256" x2="256" y1="512" y2="0"><stop offset="0" stop-color="#ffc2cc"/><stop offset="1" stop-color="#fff2f4"/></linearGradient><g><g><g><path d="m486.481 245.306c-.566.557-57.238 55.694-110.481 55.694-45.662 0-93.488-40.921-106.159-52.555-2.62-13.248-10.826-50.513-26.772-88.279-20.78-49.216-54.888-99.166-108.069-99.166-53.321 0-87.163 50.19-107.596 99.231-19.195 46.067-26.882 91.396-27.2 93.303l25.402 13.072c.557-.556 56.222-55.606 109.394-55.606 45.666 0 94.176 40.874 107.14 52.591 2.571 13.35 10.57 50.515 26.264 88.178 20.444 49.064 54.285 99.231 107.596 99.231 53.167 0 87.278-49.925 108.068-99.166 19.447-46.059 27.386-91.382 27.714-93.289zm-110.481-124.306h90c8.284 0 15-6.716 15-15s-6.716-15-15-15h-90c-8.284 0-15 6.716-15 15s6.716 15 15 15zm-60 60h150c8.284 0 15-6.716 15-15s-6.716-15-15-15h-150c-8.284 0-15 6.716-15 15s6.716 15 15 15zm-120 150h-61c-8.284 0-15 6.716-15 15s6.716 15 15 15h61c8.284 0 15-6.716 15-15s-6.716-15-15-15zm0 60h-121c-8.284 0-15 6.716-15 15s6.716 15 15 15h121c8.284 0 15-6.716 15-15s-6.716-15-15-15zm120-270c8.284 0 15-6.716 15-15s-6.716-15-15-15-15 6.716-15 15 6.716 15 15 15zm-226 225c0-8.284-6.716-15-15-15s-15 6.716-15 15 6.716 15 15 15 15-6.716 15-15z" fill="url(#SVGID_1_)"/></g></g><g><g><path d="m497 241h-467v-226c0-8.284-6.716-15-15-15s-15 6.716-15 15v482c0 8.284 6.716 15 15 15s15-6.716 15-15v-226h467c8.284 0 15-6.716 15-15s-6.716-15-15-15z" fill="url(#SVGID_2_)"/></g></g></g></svg>