<svg id="Capa_1" enable-background="new 0 0 512 512" height="512" viewBox="0 0 512 512" width="512" xmlns="http://www.w3.org/2000/svg" xmlns:xlink="http://www.w3.org/1999/xlink"><linearGradient id="SVGID_1_" gradientUnits="userSpaceOnUse" x1="256" x2="256" y1="452" y2="60"><stop offset="0" stop-color="#ffbef9"/><stop offset="1" stop-color="#fff1ff"/></linearGradient><linearGradient id="SVGID_2_" gradientUnits="userSpaceOnUse" x1="256" x2="256" y1="512" y2="0"><stop offset="0" stop-color="#a93aff"/><stop offset="1" stop-color="#ff81ff"/></linearGradient><g><g><g><path d="m256 60c-8.284 0-15 6.716-15 15v46c0 8.284 6.716 15 15 15s15-6.716 15-15v-46c0-8.284-6.716-15-15-15zm0 136c-8.284 0-15 6.716-15 15v75c0 8.284 6.716 15 15 15s15-6.716 15-15v-75c0-8.284-6.716-15-15-15zm0 135c-8.284 0-15 6.716-15 15v91c0 8.284 6.716 15 15 15s15-6.716 15-15v-91c0-8.284-6.716-15-15-15zm-180-45c-8.284 0-15 6.716-15 15v75c0 8.284 6.716 15 15 15s15-6.716 15-15v-75c0-8.284-6.716-15-15-15zm120-135h-120c-8.284 0-15 6.716-15 15v45c0 8.284 6.716 15 15 15s15-6.716 15-15v-30h105c8.284 0 15-6.716 15-15s-6.716-15-15-15zm240 0h-120c-8.284 0-15 6.716-15 15s6.716 15 15 15h105v45c0 8.284 6.716 15 15 15s15-6.716 15-15v-60c0-8.284-6.716-15-15-15z" fill="url(#SVGID_1_)"/></g></g><g><g><path d="m256 90c24.813 0 45-20.187 45-45s-20.187-45-45-45-45 20.187-45 45 20.187 45 45 45zm0 332c-24.813 0-45 20.187-45 45s20.187 45 45 45 45-20.187 45-45-20.187-45-45-45zm69-268-60-45c-5.333-4-12.667-4-18 0l-60 45c-3.777 2.833-6 7.279-6 12s2.223 9.167 6 12l60 45c2.667 2 5.833 3 9 3s6.333-1 9-3l60-45c3.777-2.833 6-7.279 6-12s-2.223-9.167-6-12zm-180 90-60-45c-5.299-3.974-12.576-4.002-17.905-.071l-61 45c-3.833 2.828-6.095 7.308-6.095 12.071s2.262 9.243 6.095 12.071l61 45c2.649 1.953 5.777 2.929 8.905 2.929 3.167 0 6.334-1.001 9-3l60-45c3.777-2.833 6-7.279 6-12s-2.223-9.167-6-12zm-9 117h-121c-8.284 0-15 6.716-15 15v60c0 8.284 6.716 15 15 15h121c8.284 0 15-6.716 15-15v-60c0-8.284-6.716-15-15-15zm180-90h-120c-8.284 0-15 6.716-15 15v60c0 8.284 6.716 15 15 15h120c8.284 0 15-6.716 15-15v-60c0-8.284-6.716-15-15-15zm181-60h-121c-8.284 0-15 6.716-15 15v60c0 8.284 6.716 15 15 15h121c8.284 0 15-6.716 15-15v-60c0-8.284-6.716-15-15-15z" fill="url(#SVGID_2_)"/></g></g></g></svg>