<svg xmlns="http://www.w3.org/2000/svg" viewBox="0 0 50 50"><path d="M44 2C42.148438 2 40.59375 3.285156 40.144531 5L16 5C12.257813 5 9.109375 7.597656 8.242188 11.078125C6.40625 11.433594 5 13.0625 5 15C5 16.867188 6.308594 18.4375 8.046875 18.871094C8.484375 22.871094 11.886719 26 16 26L34 26C36.707031 26 38.980469 27.773438 39.734375 30.226563C38.15625 30.761719 37 32.246094 37 34C37 35.828125 38.253906 37.363281 39.9375 37.835938C39.53125 40.761719 37.039063 43 34 43L9.855469 43C9.40625 41.285156 7.851563 40 6 40C3.800781 40 2 41.800781 2 44C2 46.199219 3.800781 48 6 48C7.851563 48 9.40625 46.714844 9.855469 45L34 45C38.113281 45 41.515625 41.871094 41.953125 37.871094C43.691406 37.4375 45 35.867188 45 34C45 32.0625 43.59375 30.433594 41.753906 30.078125C40.890625 26.597656 37.742188 24 34 24L16 24C12.960938 24 10.46875 21.761719 10.0625 18.835938C11.746094 18.363281 13 16.828125 13 15C13 13.246094 11.84375 11.761719 10.265625 11.226563C11.019531 8.773438 13.292969 7 16 7L40.144531 7C40.59375 8.714844 42.148438 10 44 10C46.199219 10 48 8.199219 48 6C48 3.800781 46.199219 2 44 2 Z M 44 4C45.117188 4 46 4.882813 46 6C46 7.117188 45.117188 8 44 8C42.882813 8 42 7.117188 42 6C42 4.882813 42.882813 4 44 4 Z M 9 13C10.117188 13 11 13.882813 11 15C11 16.117188 10.117188 17 9 17C7.882813 17 7 16.117188 7 15C7 13.882813 7.882813 13 9 13 Z M 41 32C42.117188 32 43 32.882813 43 34C43 35.117188 42.117188 36 41 36C39.882813 36 39 35.117188 39 34C39 32.882813 39.882813 32 41 32 Z M 6 42C7.117188 42 8 42.882813 8 44C8 45.117188 7.117188 46 6 46C4.882813 46 4 45.117188 4 44C4 42.882813 4.882813 42 6 42Z"/></svg>