<svg xmlns="http://www.w3.org/2000/svg" viewBox="0 0 50 50">
  <path d="M7 2L7 48L43 48L43 15.410156L29.183594 2 Z M 9 4L28 4L28 17L41 17L41 46L9 46 Z M 30 5.578125L39.707031 15L30 15 Z M 31.621094 23.464844C29.507813 23.464844 28.425781 24.816406 28.425781 26.4375C28.425781 27.347656 28.953125 28.414063 30.332031 29.253906C31.1875 29.808594 31.636719 30.167969 31.636719 30.90625C31.636719 31.5625 31.1875 32.046875 30.257813 32.046875C29.6875 32.046875 28.996094 31.878906 28.59375 31.65625L28.308594 33.347656C28.636719 33.542969 29.429688 33.753906 30.242188 33.753906C32.222656 33.753906 33.589844 32.539063 33.589844 30.695313C33.589844 29.628906 33.09375 28.609375 31.757813 27.796875C30.664063 27.140625 30.363281 26.824219 30.363281 26.222656C30.363281 25.683594 30.765625 25.171875 31.609375 25.171875C32.175781 25.171875 32.613281 25.339844 32.894531 25.519531L33.214844 23.824219C32.914063 23.644531 32.28125 23.464844 31.621094 23.464844 Z M 16.171875 23.554688L17.988281 28.488281L16.097656 33.664063L18.046875 33.664063L18.589844 31.835938C18.738281 31.265625 18.902344 30.652344 19.066406 30.003906L19.097656 30.003906C19.277344 30.652344 19.441406 31.21875 19.636719 31.804688L20.28125 33.664063L22.308594 33.664063L20.3125 28.578125L22.203125 23.554688L20.238281 23.554688L19.730469 25.402344C19.59375 25.953125 19.472656 26.433594 19.308594 27.046875L19.28125 27.046875C19.113281 26.480469 18.980469 25.953125 18.8125 25.429688L18.230469 23.554688 Z M 23.117188 23.558594L23.117188 33.664063L27.675781 33.664063L27.675781 32L25.082031 32L25.082031 23.558594Z" fill="#0D9F00" />
</svg>