<svg xmlns="http://www.w3.org/2000/svg" viewBox="0 0 50 50"><path d="M25 7C23.148438 7 21.59375 8.285156 21.144531 10L3 10C2.640625 9.996094 2.304688 10.183594 2.121094 10.496094C1.941406 10.808594 1.941406 11.191406 2.121094 11.503906C2.304688 11.816406 2.640625 12.003906 3 12L21.144531 12C21.59375 13.714844 23.148438 15 25 15C26.851563 15 28.40625 13.714844 28.855469 12L47 12C47.359375 12.003906 47.695313 11.816406 47.878906 11.503906C48.058594 11.191406 48.058594 10.808594 47.878906 10.496094C47.695313 10.183594 47.359375 9.996094 47 10L28.855469 10C28.40625 8.285156 26.851563 7 25 7 Z M 25 9C26.085938 9 26.941406 9.835938 26.988281 10.910156C26.984375 10.96875 26.984375 11.03125 26.988281 11.09375C26.941406 12.164063 26.085938 13 25 13C23.914063 13 23.058594 12.164063 23.011719 11.089844C23.015625 11.03125 23.015625 10.96875 23.011719 10.90625C23.058594 9.835938 23.914063 9 25 9 Z M 39 21C37.148438 21 35.59375 22.285156 35.144531 24L3 24C2.640625 23.996094 2.304688 24.183594 2.121094 24.496094C1.941406 24.808594 1.941406 25.191406 2.121094 25.503906C2.304688 25.816406 2.640625 26.003906 3 26L35.144531 26C35.59375 27.714844 37.148438 29 39 29C40.851563 29 42.40625 27.714844 42.855469 26L47 26C47.359375 26.003906 47.695313 25.816406 47.878906 25.503906C48.058594 25.191406 48.058594 24.808594 47.878906 24.496094C47.695313 24.183594 47.359375 23.996094 47 24L42.855469 24C42.40625 22.285156 40.851563 21 39 21 Z M 39 23C40.085938 23 40.941406 23.835938 40.988281 24.910156C40.984375 24.96875 40.984375 25.03125 40.988281 25.09375C40.941406 26.164063 40.085938 27 39 27C37.914063 27 37.058594 26.164063 37.011719 25.089844C37.015625 25.03125 37.015625 24.96875 37.011719 24.90625C37.058594 23.835938 37.914063 23 39 23 Z M 14 35C12.148438 35 10.59375 36.285156 10.144531 38L3 38C2.640625 37.996094 2.304688 38.183594 2.121094 38.496094C1.941406 38.808594 1.941406 39.191406 2.121094 39.503906C2.304688 39.816406 2.640625 40.003906 3 40L10.144531 40C10.59375 41.714844 12.148438 43 14 43C15.851563 43 17.40625 41.714844 17.855469 40L47 40C47.359375 40.003906 47.695313 39.816406 47.878906 39.503906C48.058594 39.191406 48.058594 38.808594 47.878906 38.496094C47.695313 38.183594 47.359375 37.996094 47 38L17.855469 38C17.40625 36.285156 15.851563 35 14 35 Z M 14 37C15.085938 37 15.941406 37.835938 15.988281 38.910156C15.984375 38.96875 15.984375 39.03125 15.988281 39.09375C15.941406 40.164063 15.085938 41 14 41C12.914063 41 12.058594 40.164063 12.011719 39.089844C12.015625 39.03125 12.015625 38.96875 12.011719 38.90625C12.058594 37.835938 12.914063 37 14 37Z"/></svg>