<svg xmlns="http://www.w3.org/2000/svg" viewBox="0 0 50 50"><path d="M3 8 A 1.0001 1.0001 0 0 0 2 9L2 41 A 1.0001 1.0001 0 0 0 3 42L41 42 A 1.0001 1.0001 0 0 0 41.316406 41.949219L47.316406 39.949219 A 1.0001 1.0001 0 0 0 48 39L48 11 A 1.0001 1.0001 0 0 0 47.316406 10.050781L41.316406 8.0507812 A 1.0001 1.0001 0 0 0 41 8L3 8 z M 4 10L40 10L40 40L4 40L4 10 z M 42 10.386719L46 11.720703L46 38.279297L42 39.611328L42 10.386719 z M 6 12L6 13L6 20L14 20L14 12L6 12 z M 8 14L12 14L12 18L8 18L8 14 z M 12 30L12 32L37 32L37 30L12 30 z M 12 34L12 36L37 36L37 34L12 34 z"/></svg>