<svg xmlns="http://www.w3.org/2000/svg" viewBox="0 0 50 50">
  <path d="M24 0L24 1L24 4.0253906C13.20845 4.5329024 4.5329024 13.20845 4.0253906 24L1 24L0 24L0 26L1 26L4.0253906 26C4.5329024 36.79155 13.20845 45.467098 24 45.974609L24 49L24 50L26 50L26 49L26 45.974609C36.79155 45.467098 45.467098 36.79155 45.974609 26L49 26L50 26L50 24L49 24L45.974609 24C45.467098 13.20845 36.79155 4.5329024 26 4.0253906L26 1L26 0L24 0 z M 24 6.0507812L24 9L24 10L26 10L26 9L26 6.0507812C35.703044 6.5553041 43.444696 14.296956 43.949219 24L41 24L40 24L40 26L41 26L43.949219 26C43.444696 35.703044 35.703044 43.444696 26 43.949219L26 41L26 40L24 40L24 41L24 43.949219C14.296956 43.444696 6.5553041 35.703044 6.0507812 26L9 26L10 26L10 24L9 24L6.0507812 24C6.5553041 14.296956 14.296956 6.5553041 24 6.0507812 z" fill="#FFFFFF" />
</svg>