<svg xmlns="http://www.w3.org/2000/svg" viewBox="0 0 50 50"><path d="M12 0C10.90625 0 10 0.90625 10 2L10 4L4 4C3.59375 4 3.148438 4.0625 2.722656 4.359375C2.296875 4.65625 2 5.246094 2 5.792969L2 46.042969C2 46.542969 2.171875 47.054688 2.53125 47.425781C2.886719 47.800781 3.410156 48 3.917969 48L46.082031 48C46.589844 48 47.113281 47.800781 47.46875 47.425781C47.828125 47.054688 48 46.542969 48 46.042969L48 5.792969C48 5.246094 47.703125 4.65625 47.277344 4.359375C46.851563 4.0625 46.40625 4 46 4L40 4L40 2C40 0.90625 39.09375 0 38 0L36 0C34.90625 0 34 0.90625 34 2L34 4L16 4L16 2C16 0.90625 15.09375 0 14 0 Z M 12 2L14 2L14 8L12 8 Z M 36 2L38 2L38 8L36 8 Z M 4 6L10 6L10 8C10 9.09375 10.90625 10 12 10L14 10C15.09375 10 16 9.09375 16 8L16 6L34 6L34 8C34 9.09375 34.90625 10 36 10L38 10C39.09375 10 40 9.09375 40 8L40 6L46 6L46 13L4 13 Z M 4 15L46 15L46 46L4 46 Z M 20.75 23.171875C20.140625 23.171875 19.59375 23.28125 19.113281 23.5C18.632813 23.714844 18.222656 24.015625 17.886719 24.398438C17.546875 24.78125 17.277344 25.234375 17.082031 25.757813C16.886719 26.28125 16.777344 26.84375 16.753906 27.457031L18.71875 27.457031C18.707031 27.132813 18.742188 26.820313 18.824219 26.515625C18.902344 26.207031 19.027344 25.929688 19.191406 25.6875C19.359375 25.441406 19.566406 25.242188 19.820313 25.097656C20.074219 24.957031 20.371094 24.886719 20.71875 24.886719C21.269531 24.886719 21.71875 25.046875 22.066406 25.371094C22.417969 25.691406 22.59375 26.125 22.59375 26.667969C22.59375 27.050781 22.515625 27.375 22.359375 27.640625C22.207031 27.902344 22.003906 28.109375 21.75 28.261719C21.5 28.410156 21.210938 28.515625 20.890625 28.574219C20.570313 28.632813 20.246094 28.660156 19.925781 28.644531L19.921875 28.644531L19.921875 30.175781C20.3125 30.164063 20.695313 30.175781 21.066406 30.214844C21.4375 30.25 21.773438 30.339844 22.074219 30.488281C22.371094 30.640625 22.617188 30.859375 22.796875 31.148438C22.980469 31.4375 23.074219 31.828125 23.074219 32.316406C23.074219 33.039063 22.851563 33.59375 22.410156 33.984375C21.96875 34.371094 21.417969 34.566406 20.765625 34.566406C19.996094 34.566406 19.421875 34.3125 19.035156 33.800781C18.648438 33.292969 18.472656 32.65625 18.496094 31.886719L16.53125 31.886719C16.542969 32.546875 16.640625 33.144531 16.824219 33.6875C17.007813 34.226563 17.273438 34.6875 17.625 35.074219C17.972656 35.457031 18.410156 35.753906 18.933594 35.964844C19.457031 36.171875 20.066406 36.277344 20.765625 36.277344C21.339844 36.277344 21.886719 36.1875 22.402344 36.007813C22.917969 35.828125 23.371094 35.574219 23.765625 35.242188C24.152344 34.914063 24.464844 34.511719 24.691406 34.035156C24.921875 33.5625 25.035156 33.027344 25.035156 32.425781C25.035156 31.609375 24.84375 30.917969 24.460938 30.347656C24.078125 29.777344 23.539063 29.417969 22.851563 29.277344L22.851563 29.238281C23.4375 29.023438 23.867188 28.679688 24.140625 28.203125C24.417969 27.730469 24.558594 27.175781 24.558594 26.539063C24.558594 25.988281 24.445313 25.5 24.230469 25.074219C24.007813 24.644531 23.722656 24.296875 23.359375 24.019531C22.996094 23.742188 22.589844 23.535156 22.136719 23.390625C21.683594 23.246094 21.222656 23.171875 20.75 23.171875 Z M 30 23.425781C29.929688 23.808594 29.78125 24.132813 29.558594 24.398438C29.335938 24.664063 29.066406 24.878906 28.75 25.046875C28.433594 25.214844 28.082031 25.335938 27.6875 25.40625C27.300781 25.476563 26.898438 25.511719 26.484375 25.515625L26.484375 27.136719L29.449219 27.136719L29.449219 36.027344L31.597656 36.027344L31.597656 23.425781Z"/></svg>