<svg xmlns="http://www.w3.org/2000/svg" viewBox="0 0 50 50">
  <path d="M28.875 0C28.855469 0.0078125 28.832031 0.0195313 28.8125 0.03125L0.8125 5.34375C0.335938 5.433594 -0.0078125 5.855469 0 6.34375L0 43.65625C-0.0078125 44.144531 0.335938 44.566406 0.8125 44.65625L28.8125 49.96875C29.101563 50.023438 29.402344 49.949219 29.632813 49.761719C29.859375 49.574219 29.996094 49.296875 30 49L30 44L47 44C48.09375 44 49 43.09375 49 42L49 8C49 6.90625 48.09375 6 47 6L30 6L30 1C30.003906 0.710938 29.878906 0.4375 29.664063 0.246094C29.449219 0.0546875 29.160156 -0.0351563 28.875 0 Z M 28 2.1875L28 6.6875C27.941406 6.882813 27.941406 7.085938 28 7.28125L28 42.8125C27.972656 42.945313 27.972656 43.085938 28 43.21875L28 47.8125L2 42.84375L2 7.15625 Z M 30 8L47 8L47 42L30 42L30 37L44 37L44 35L30 35L30 29L44 29L44 27L30 27L30 22L44 22L44 20L30 20L30 15L44 15L44 13L30 13 Z M 4.625 15.65625L8.4375 34.34375L12.1875 34.34375L14.65625 22.375C14.769531 21.824219 14.875 21.101563 14.9375 20.25L14.96875 20.25C14.996094 21.023438 15.058594 21.75 15.1875 22.375L17.59375 34.34375L21.21875 34.34375L25.0625 15.65625L21.75 15.65625L19.75 28.125C19.632813 28.828125 19.558594 29.53125 19.53125 30.21875L19.5 30.21875C19.433594 29.339844 19.367188 28.679688 19.28125 28.21875L16.90625 15.65625L13.40625 15.65625L10.78125 28.0625C10.613281 28.855469 10.496094 29.582031 10.46875 30.25L10.40625 30.25C10.367188 29.355469 10.308594 28.625 10.21875 28.09375L8.1875 15.65625Z" fill="#00199F" />
</svg>