<svg xmlns="http://www.w3.org/2000/svg" viewBox="0 0 50 50"><path d="M47 6C45.628906 6 44.476563 6.953125 44.125 8.21875L5.6875 19.75C5.207031 18.726563 4.195313 18 3 18C1.355469 18 0 19.355469 0 21L0 27C0 28.644531 1.355469 30 3 30C4.175781 30 5.195313 29.308594 5.6875 28.3125L13.65625 31.09375L12.875 33.15625C12.875 33.167969 12.875 33.175781 12.875 33.1875C12.101563 35.507813 13.367188 38.039063 15.6875 38.8125L19.84375 40.21875C22.164063 40.992188 24.695313 39.726563 25.46875 37.40625L26.125 35.4375L44.125 41.75C44.46875 43.03125 45.621094 44 47 44C48.644531 44 50 42.644531 50 41L50 9C50 7.355469 48.644531 6 47 6 Z M 47 8C47.5625 8 48 8.4375 48 9L48 41C48 41.5625 47.5625 42 47 42C46.445313 42 46.015625 41.582031 46 41.03125C46 41.019531 46 41.011719 46 41L46 9C46 8.96875 46 8.9375 46 8.90625C46.046875 8.386719 46.46875 8 47 8 Z M 44 10.34375L44 39.59375L6 26.28125L6 21.75 Z M 3 20C3.53125 20 3.953125 20.386719 4 20.90625C4.003906 20.9375 4 20.96875 4 21L4 27C4 27.03125 4 27.0625 4 27.09375C3.953125 27.613281 3.53125 28 3 28C2.4375 28 2 27.5625 2 27L2 21C2 20.4375 2.4375 20 3 20 Z M 15.53125 31.75L24.21875 34.78125L23.5625 36.75C23.132813 38.046875 21.765625 38.746094 20.46875 38.3125L16.3125 36.9375C15.03125 36.507813 14.371094 35.128906 14.78125 33.84375C14.785156 33.832031 14.777344 33.824219 14.78125 33.8125Z"/></svg>