<?xml version="1.0" standalone="no"?>
<!DOCTYPE svg PUBLIC "-//W3C//DTD SVG 20010904//EN"
 "http://www.w3.org/TR/2001/REC-SVG-20010904/DTD/svg10.dtd">
<svg version="1.0" xmlns="http://www.w3.org/2000/svg"
 width="204.000000pt" height="196.000000pt" viewBox="0 0 204.000000 196.000000"
 preserveAspectRatio="xMidYMid meet">

<g transform="translate(0.000000,196.000000) scale(0.100000,-0.100000)"
fill="#000000" stroke="none">
<path d="M529 1569 c-261 -204 -482 -379 -493 -389 -13 -13 -17 -26 -12 -43 8
-35 38 -39 80 -11 l36 25 0 -550 c0 -486 2 -551 16 -565 13 -14 58 -16 335
-16 l319 0 0 395 0 395 210 0 210 0 0 -395 0 -395 319 0 c277 0 322 2 335 16
14 14 16 79 16 565 l0 550 36 -25 c20 -13 44 -22 55 -19 23 6 36 48 21 66 -6
7 -81 67 -166 132 l-155 120 -3 155 -3 155 -125 0 -125 0 -3 -47 c-2 -27 -5
-48 -8 -48 -2 0 -90 68 -196 150 -105 83 -199 150 -208 150 -9 0 -230 -167
-491 -371z m890 -39 l391 -305 0 -557 0 -558 -250 0 -250 0 0 395 0 395 -290
0 -290 0 0 -395 0 -395 -250 0 -250 0 0 558 0 557 393 307 c215 169 395 306
399 305 4 -1 183 -139 397 -307z m181 44 l0 -76 -40 32 c-36 28 -40 36 -40 76
l0 44 40 0 40 0 0 -76z"/>
</g>
</svg>
