<svg xmlns="http://www.w3.org/2000/svg" viewBox="0 0 50 50">
  <path d="M6 0L6 50L44 50L44 14.585938L29.414063 0 Z M 8 2L28 2L28 16L42 16L42 48L8 48 Z M 30 3.414063L40.585938 14L30 14 Z M 17.316406 24.492188C16.515625 24.492188 15.769531 24.578125 15.191406 24.714844L15.191406 36L16.992188 36L16.992188 31.527344C17.164063 31.546875 17.316406 31.546875 17.503906 31.546875C18.472656 31.546875 19.578125 31.15625 20.257813 30.355469C20.785156 29.742188 21.109375 28.960938 21.109375 27.808594C21.109375 26.820313 20.800781 25.9375 20.1875 25.359375C19.507813 24.714844 18.523438 24.492188 17.316406 24.492188 Z M 24.558594 24.492188C23.777344 24.492188 23.046875 24.578125 22.519531 24.714844L22.519531 35.964844C22.929688 36.03125 23.558594 36.082031 24.1875 36.082031C25.664063 36.082031 26.789063 35.710938 27.550781 34.925781C28.417969 34.078125 29.03125 32.53125 29.03125 30.066406C29.03125 27.769531 28.453125 26.277344 27.515625 25.441406C26.835938 24.8125 25.882813 24.492188 24.558594 24.492188 Z M 30.507813 24.542969L30.507813 36L32.328125 36L32.328125 31.054688L35.03125 31.054688L35.03125 29.542969L32.328125 29.542969L32.328125 26.125L35.21875 26.125L35.21875 24.542969 Z M 24.847656 25.953125C26.429688 25.953125 27.15625 27.449219 27.15625 30.050781C27.15625 33.535156 26.019531 34.589844 24.761719 34.589844C24.644531 34.589844 24.472656 34.589844 24.320313 34.554688L24.320313 26.003906C24.472656 25.972656 24.660156 25.953125 24.847656 25.953125 Z M 17.621094 25.96875C18.84375 25.96875 19.285156 26.871094 19.285156 27.941406C19.285156 29.25 18.625 30.066406 17.4375 30.066406C17.25 30.066406 17.128906 30.066406 16.992188 30.03125L16.992188 26.054688C17.144531 26.003906 17.367188 25.96875 17.621094 25.96875Z" fill="#FA0000" />
</svg>