<svg xmlns="http://www.w3.org/2000/svg" viewBox="0 0 50 50"><path d="M25 2C12.264481 2 2 12.264481 2 25C2 37.735519 12.264481 48 25 48C37.735519 48 48 37.735519 48 25C48 12.264481 37.735519 2 25 2 z M 25 4C36.664481 4 46 13.335519 46 25C46 36.664481 36.664481 46 25 46C13.335519 46 4 36.664481 4 25C4 13.335519 13.335519 4 25 4 z M 24 10L24 12.800781C18.4 13.100781 17.5 17.299219 17.5 19.199219C17.5 23.799219 20.7 24.899219 24 25.699219L24 35.5C22.2 35.2 18.8 34.000781 19 29.300781L16.900391 29.300781C17.100391 36.000781 21.399609 36.899219 24.099609 37.199219L24.099609 40L26.099609 40L26.099609 37.199219C32.799609 36.699219 33.300781 31.699219 33.300781 30.699219C33.200781 26.099219 29.5 24.999219 26 24.199219L26 14.5C29.9 15 30.5 18.400391 30.5 19.900391L32.599609 19.900391C32.799609 17.100391 30.8 13.000781 26 12.800781L26 10L24 10 z M 24 14.5L24 23.699219C21.5 22.999219 19.5 22.100391 19.5 19.400391C19.5 17.300391 20.3 14.8 24 14.5 z M 26 26.300781C28.8 27.000781 31.199219 27.800781 31.199219 30.800781C31.199219 31.500781 31 35.199609 26 35.599609L26 26.300781 z"/></svg>