<svg xmlns="http://www.w3.org/2000/svg" viewBox="0 0 50 50">
  <path d="M28.875 0C28.855469 0.0078125 28.832031 0.0195313 28.8125 0.03125L0.8125 5.34375C0.335938 5.433594 -0.0078125 5.855469 0 6.34375L0 43.65625C-0.0078125 44.144531 0.335938 44.566406 0.8125 44.65625L28.8125 49.96875C29.101563 50.023438 29.402344 49.949219 29.632813 49.761719C29.859375 49.574219 29.996094 49.296875 30 49L30 44L47 44C48.09375 44 49 43.09375 49 42L49 8C49 6.90625 48.09375 6 47 6L30 6L30 1C30.003906 0.710938 29.878906 0.4375 29.664063 0.246094C29.449219 0.0546875 29.160156 -0.0351563 28.875 0 Z M 28 2.1875L28 6.6875C27.941406 6.882813 27.941406 7.085938 28 7.28125L28 42.8125C27.972656 42.945313 27.972656 43.085938 28 43.21875L28 47.8125L2 42.84375L2 7.15625 Z M 30 8L47 8L47 42L30 42L30 37L40 37L40 35L30 35L30 29.4375C30.921875 29.804688 31.949219 30 33 30C37.40625 30 41 26.40625 41 22L41 21L34 21L34 14L33 14C31.941406 14 30.929688 14.191406 30 14.5625 Z M 35 11L35 20L44 20L44 19C44 14.59375 40.40625 11 36 11 Z M 37 13.1875C39.492188 13.617188 41.382813 15.507813 41.8125 18L37 18 Z M 8.15625 15.65625L8.15625 34.375L12.375 34.375L12.375 27.9375L14.375 27.9375C16.636719 27.9375 18.460938 27.347656 19.8125 26.1875C21.164063 25.027344 21.84375 23.503906 21.84375 21.625C21.84375 17.648438 19.464844 15.65625 14.75 15.65625 Z M 32 16.25L32 23L38.8125 23C38.324219 25.828125 35.972656 28 33 28C31.953125 28 30.980469 27.71875 30.125 27.25C30.085938 27.226563 30.042969 27.207031 30 27.1875L30 16.8125C30.03125 16.792969 30.0625 16.773438 30.09375 16.75C30.660156 16.433594 31.339844 16.367188 32 16.25 Z M 12.375 18.90625L14.03125 18.90625C16.273438 18.90625 17.40625 19.859375 17.40625 21.78125C17.40625 23.746094 16.273438 24.71875 14.03125 24.71875L12.375 24.71875Z" fill="#9F0000" />
</svg>