<svg xmlns="http://www.w3.org/2000/svg" viewBox="0 0 50 50"><path d="M10 4C6.6981361 4 4 6.6981361 4 10C4 13.301864 6.6981361 16 10 16C13.301864 16 16 13.301864 16 10C16 6.6981361 13.301864 4 10 4 z M 25 4C21.698136 4 19 6.6981361 19 10C19 13.301864 21.698136 16 25 16C28.301864 16 31 13.301864 31 10C31 6.6981361 28.301864 4 25 4 z M 40 4C36.698136 4 34 6.6981361 34 10C34 13.301864 36.698136 16 40 16C43.301864 16 46 13.301864 46 10C46 6.6981361 43.301864 4 40 4 z M 10 6C12.220984 6 14 7.7790164 14 10C14 12.220984 12.220984 14 10 14C7.7790164 14 6 12.220984 6 10C6 7.7790164 7.7790164 6 10 6 z M 25 6C27.220984 6 29 7.7790164 29 10C29 12.220984 27.220984 14 25 14C22.779016 14 21 12.220984 21 10C21 7.7790164 22.779016 6 25 6 z M 40 6C42.220984 6 44 7.7790164 44 10C44 12.220984 42.220984 14 40 14C37.779016 14 36 12.220984 36 10C36 7.7790164 37.779016 6 40 6 z M 10 19C6.6981361 19 4 21.698136 4 25C4 28.301864 6.6981361 31 10 31C13.301864 31 16 28.301864 16 25C16 21.698136 13.301864 19 10 19 z M 25 19C21.698136 19 19 21.698136 19 25C19 28.301864 21.698136 31 25 31C28.301864 31 31 28.301864 31 25C31 21.698136 28.301864 19 25 19 z M 40 19C36.698136 19 34 21.698136 34 25C34 28.301864 36.698136 31 40 31C43.301864 31 46 28.301864 46 25C46 21.698136 43.301864 19 40 19 z M 10 21C12.220984 21 14 22.779016 14 25C14 27.220984 12.220984 29 10 29C7.7790164 29 6 27.220984 6 25C6 22.779016 7.7790164 21 10 21 z M 25 21C27.220984 21 29 22.779016 29 25C29 27.220984 27.220984 29 25 29C22.779016 29 21 27.220984 21 25C21 22.779016 22.779016 21 25 21 z M 40 21C42.220984 21 44 22.779016 44 25C44 27.220984 42.220984 29 40 29C37.779016 29 36 27.220984 36 25C36 22.779016 37.779016 21 40 21 z M 10 34C6.6981361 34 4 36.698136 4 40C4 43.301864 6.6981361 46 10 46C13.301864 46 16 43.301864 16 40C16 36.698136 13.301864 34 10 34 z M 25 34C21.698136 34 19 36.698136 19 40C19 43.301864 21.698136 46 25 46C28.301864 46 31 43.301864 31 40C31 36.698136 28.301864 34 25 34 z M 40 34C36.698136 34 34 36.698136 34 40C34 43.301864 36.698136 46 40 46C43.301864 46 46 43.301864 46 40C46 36.698136 43.301864 34 40 34 z M 10 36C12.220984 36 14 37.779016 14 40C14 42.220984 12.220984 44 10 44C7.7790164 44 6 42.220984 6 40C6 37.779016 7.7790164 36 10 36 z M 25 36C27.220984 36 29 37.779016 29 40C29 42.220984 27.220984 44 25 44C22.779016 44 21 42.220984 21 40C21 37.779016 22.779016 36 25 36 z M 40 36C42.220984 36 44 37.779016 44 40C44 42.220984 42.220984 44 40 44C37.779016 44 36 42.220984 36 40C36 37.779016 37.779016 36 40 36 z"/></svg>